<?xml version="1.0"?>
<svg xmlns:rdf="http://www.w3.org/1999/02/22-rdf-syntax-ns#" xmlns="http://www.w3.org/2000/svg" xmlns:cc="http://web.resource.org/cc/" xmlns:xlink="http://www.w3.org/1999/xlink" xmlns:dc="http://purl.org/dc/elements/1.1/" xmlns:svg="http://www.w3.org/2000/svg" id="svg6661" viewBox="0 0 640 480">
  <defs id="defs6663">
    <linearGradient id="linearGradient5727" x1="290.41" xlink:href="#linearGradient4614" gradientUnits="userSpaceOnUse" y1="61.258" gradientTransform="translate(-67.502 205.36)" x2="402.78" y2="61.258"/>
    <linearGradient id="linearGradient6620" x1="252.14" xlink:href="#linearGradient4614" gradientUnits="userSpaceOnUse" x2="397.14" y1="316.29" y2="316.29"/>
    <radialGradient id="radialGradient4786" xlink:href="#linearGradient4614" gradientUnits="userSpaceOnUse" cy="244.37" cx="432.72" gradientTransform="matrix(1.2324 .68824 -.68901 1.2338 67.788 -354.96)" r="6.6897"/>
    <linearGradient id="linearGradient4614">
      <stop id="stop4616" stop-color="#c90" offset="0"/>
      <stop id="stop4618" stop-color="#ffcd00" offset="1"/>
    </linearGradient>
  </defs>
  <g id="layer1">
    <g id="g6622" transform="matrix(3.5716 0 0 3.5716 -734.45 -655.3)">
      <g id="g1925" fill="#fc0">
        <path id="path1882" transform="matrix(.54358 .51271 -.83936 .33204 384.61 -14.82)" d="m397.14 316.29a72.5 72.5 0 1 1 -14.88 -44.01l-57.62 44.01z"/>
        <rect id="rect1905" ry="7.8571" height="35" width="52.857" y="226.65" x="222.86"/>
        <rect id="rect1911" ry="7.8571" height="35" width="52.857" y="226.65" x="315"/>
        <rect id="rect1913" transform="matrix(1 -.0029431 .00049723 1 0 0)" ry=".8265" height="20.728" width="52.868" y="274.37" x="282.21"/>
      </g>
      <g id="g4725" transform="matrix(1.0028 .21218 .0092072 .70625 -95.848 -10.063)">
        <rect id="rect1934" ry=".8265" height="30.052" width="83.969" y="231.88" x="372.18" fill="#fd5"/>
        <path id="path2842" d="m443.08 245.5a6.4397 6.4397 0 1 1 -12.88 0 6.4397 6.4397 0 1 1 12.88 0z" transform="translate(7.5762 -3.0305)" stroke="#fc0" stroke-width=".5" fill="url(#radialGradient4786)"/>
        <path id="path4632" d="m443.08 245.5a6.4397 6.4397 0 1 1 -12.88 0 6.4397 6.4397 0 1 1 12.88 0z" transform="matrix(.60362 0 0 .60362 146.94 92.261)" stroke="#fc0" stroke-width=".5" fill="url(#radialGradient4786)"/>
        <path id="path4636" d="m443.08 245.5a6.4397 6.4397 0 1 1 -12.88 0 6.4397 6.4397 0 1 1 12.88 0z" transform="matrix(.60362 0 0 .60362 176.61 108.42)" stroke="#fc0" stroke-width=".5" fill="url(#radialGradient4786)"/>
        <path id="path4640" d="m443.08 245.5a6.4397 6.4397 0 1 1 -12.88 0 6.4397 6.4397 0 1 1 12.88 0z" transform="matrix(.92450 0 0 .92450 -18.173 13.359)" stroke="#fc0" stroke-width=".5" fill="url(#radialGradient4786)"/>
        <path id="path4644" d="m443.08 245.5a6.4397 6.4397 0 1 1 -12.88 0 6.4397 6.4397 0 1 1 12.88 0z" transform="matrix(.83012 0 0 .83012 53.845 48.271)" stroke="#fc0" stroke-width=".5" fill="url(#radialGradient4786)"/>
        <path id="path4648" d="m443.08 245.5a6.4397 6.4397 0 1 1 -12.88 0 6.4397 6.4397 0 1 1 12.88 0z" transform="matrix(.60362 0 0 .60362 118.4 104.64)" stroke="#fc0" stroke-width=".5" fill="url(#radialGradient4786)"/>
        <path id="path4652" d="m443.08 245.5a6.4397 6.4397 0 1 1 -12.88 0 6.4397 6.4397 0 1 1 12.88 0z" transform="matrix(.25443 0 0 .25443 319.17 181.84)" stroke="#fc0" stroke-width=".5" fill="url(#radialGradient4786)"/>
        <path id="path4656" d="m443.08 245.5a6.4397 6.4397 0 1 1 -12.88 0 6.4397 6.4397 0 1 1 12.88 0z" transform="matrix(.25443 0 0 .25443 288.61 191.06)" stroke="#fc0" stroke-width=".5" fill="url(#radialGradient4786)"/>
      </g>
      <path id="path1880" transform="matrix(.54358 .51271 -.83936 .33204 384.37 -35.105)" fill="url(#linearGradient6620)" d="m397.14 316.29a72.5 72.5 0 1 1 -14.88 -44.01l-57.62 44.01z"/>
      <path id="rect1896" d="m223.25 232.23c-0.23 0.74-0.35 1.53-0.35 2.35v19.28c0 0.68 0.09 1.34 0.25 1.97 0 0.02 0.01 0.04 0 0.06-0.27 8.53 3.47 17.21 11.63 24.9 21.59 20.37 66.02 26.29 99.53 13.38h0.13c0.22 0 0.44-0.1 0.59-0.25l0.03-0.03c0.13-0.15 0.22-0.32 0.22-0.53v-19.1c0-0.35-0.25-0.63-0.56-0.75l0.09 0.1c-33.59 13.29-78.49 7.42-100.25-13.1-9.24-8.71-12.82-18.68-11.31-28.28z" fill="url(#linearGradient5727)"/>
    </g>
  </g>
  <metadata>
    <rdf:RDF>
      <cc:Work>
        <dc:format>image/svg+xml</dc:format>
        <dc:type rdf:resource="http://purl.org/dc/dcmitype/StillImage"/>
        <cc:license rdf:resource="http://creativecommons.org/licenses/publicdomain/"/>
        <dc:publisher>
          <cc:Agent rdf:about="http://openclipart.org/">
            <dc:title>Openclipart</dc:title>
          </cc:Agent>
        </dc:publisher>
        <dc:title>Cheese</dc:title>
        <dc:date>2006-11-30T07:42:30</dc:date>
        <dc:description>Yellow cheese.</dc:description>
        <dc:source>http://openclipart.org/detail/1696/cheese-by-nodanero</dc:source>
        <dc:creator>
          <cc:Agent>
            <dc:title>nodanero</dc:title>
          </cc:Agent>
        </dc:creator>
        <dc:subject>
          <rdf:Bag>
            <rdf:li>cheese</rdf:li>
            <rdf:li>clip art</rdf:li>
            <rdf:li>clipart</rdf:li>
            <rdf:li>colour</rdf:li>
            <rdf:li>dairy</rdf:li>
            <rdf:li>dairy product</rdf:li>
            <rdf:li>food</rdf:li>
            <rdf:li>image</rdf:li>
            <rdf:li>media</rdf:li>
            <rdf:li>no contour</rdf:li>
            <rdf:li>png</rdf:li>
            <rdf:li>public domain</rdf:li>
            <rdf:li>svg</rdf:li>
            <rdf:li>yellow</rdf:li>
          </rdf:Bag>
        </dc:subject>
      </cc:Work>
      <cc:License rdf:about="http://creativecommons.org/licenses/publicdomain/">
        <cc:permits rdf:resource="http://creativecommons.org/ns#Reproduction"/>
        <cc:permits rdf:resource="http://creativecommons.org/ns#Distribution"/>
        <cc:permits rdf:resource="http://creativecommons.org/ns#DerivativeWorks"/>
      </cc:License>
    </rdf:RDF>
  </metadata>
</svg>
